<mxfile host="app.diagrams.net" modified="2021-06-26T11:38:48.760Z" agent="5.0 (Windows NT 10.0; Win64; x64) AppleWebKit/537.36 (KHTML, like Gecko) Chrome/91.0.4472.124 Safari/537.36" etag="0vp8-VEXuBUFez2Fw2p8" version="14.8.1" type="github">
  <diagram id="9SCN9GtrKDQEi3Oo_EW_" name="Page-1">
    <mxGraphModel dx="1422" dy="762" grid="1" gridSize="10" guides="1" tooltips="1" connect="1" arrows="1" fold="1" page="1" pageScale="1" pageWidth="827" pageHeight="1169" math="0" shadow="0">
      <root>
        <mxCell id="0" />
        <mxCell id="1" parent="0" />
        <mxCell id="-CtbvRUkjZRUwB8g9ffI-24" style="edgeStyle=orthogonalEdgeStyle;rounded=0;orthogonalLoop=1;jettySize=auto;html=1;exitX=0;exitY=0;exitDx=0;exitDy=0;entryX=0.5;entryY=1;entryDx=0;entryDy=0;endArrow=none;endFill=0;curved=1;" edge="1" parent="1" source="-CtbvRUkjZRUwB8g9ffI-1" target="-CtbvRUkjZRUwB8g9ffI-23">
          <mxGeometry relative="1" as="geometry" />
        </mxCell>
        <mxCell id="-CtbvRUkjZRUwB8g9ffI-26" style="edgeStyle=orthogonalEdgeStyle;curved=1;rounded=0;orthogonalLoop=1;jettySize=auto;html=1;entryX=0;entryY=1;entryDx=0;entryDy=0;endArrow=none;endFill=0;" edge="1" parent="1" source="-CtbvRUkjZRUwB8g9ffI-1" target="-CtbvRUkjZRUwB8g9ffI-11">
          <mxGeometry relative="1" as="geometry" />
        </mxCell>
        <mxCell id="-CtbvRUkjZRUwB8g9ffI-30" style="edgeStyle=orthogonalEdgeStyle;curved=1;rounded=0;orthogonalLoop=1;jettySize=auto;html=1;entryX=0.5;entryY=0;entryDx=0;entryDy=0;endArrow=none;endFill=0;" edge="1" parent="1" source="-CtbvRUkjZRUwB8g9ffI-1" target="-CtbvRUkjZRUwB8g9ffI-19">
          <mxGeometry relative="1" as="geometry" />
        </mxCell>
        <mxCell id="-CtbvRUkjZRUwB8g9ffI-1" value="" style="ellipse;whiteSpace=wrap;html=1;aspect=fixed;" vertex="1" parent="1">
          <mxGeometry x="250" y="140" width="30" height="30" as="geometry" />
        </mxCell>
        <mxCell id="-CtbvRUkjZRUwB8g9ffI-27" style="edgeStyle=orthogonalEdgeStyle;curved=1;rounded=0;orthogonalLoop=1;jettySize=auto;html=1;entryX=0;entryY=0.5;entryDx=0;entryDy=0;endArrow=none;endFill=0;" edge="1" parent="1" source="-CtbvRUkjZRUwB8g9ffI-11" target="-CtbvRUkjZRUwB8g9ffI-22">
          <mxGeometry relative="1" as="geometry" />
        </mxCell>
        <mxCell id="-CtbvRUkjZRUwB8g9ffI-11" value="" style="ellipse;whiteSpace=wrap;html=1;aspect=fixed;" vertex="1" parent="1">
          <mxGeometry x="340" y="90" width="30" height="30" as="geometry" />
        </mxCell>
        <mxCell id="-CtbvRUkjZRUwB8g9ffI-56" style="edgeStyle=orthogonalEdgeStyle;curved=1;rounded=0;orthogonalLoop=1;jettySize=auto;html=1;entryX=0;entryY=0.5;entryDx=0;entryDy=0;endArrow=none;endFill=0;" edge="1" parent="1" source="-CtbvRUkjZRUwB8g9ffI-12" target="-CtbvRUkjZRUwB8g9ffI-53">
          <mxGeometry relative="1" as="geometry" />
        </mxCell>
        <mxCell id="-CtbvRUkjZRUwB8g9ffI-12" value="" style="ellipse;whiteSpace=wrap;html=1;aspect=fixed;fillColor=#dae8fc;strokeColor=#6c8ebf;" vertex="1" parent="1">
          <mxGeometry x="380" y="320" width="30" height="30" as="geometry" />
        </mxCell>
        <mxCell id="-CtbvRUkjZRUwB8g9ffI-42" style="edgeStyle=orthogonalEdgeStyle;curved=1;rounded=0;orthogonalLoop=1;jettySize=auto;html=1;entryX=0.5;entryY=1;entryDx=0;entryDy=0;endArrow=none;endFill=0;" edge="1" parent="1" source="-CtbvRUkjZRUwB8g9ffI-13" target="-CtbvRUkjZRUwB8g9ffI-14">
          <mxGeometry relative="1" as="geometry" />
        </mxCell>
        <mxCell id="-CtbvRUkjZRUwB8g9ffI-13" value="" style="ellipse;whiteSpace=wrap;html=1;aspect=fixed;fillColor=#f8cecc;strokeColor=#b85450;" vertex="1" parent="1">
          <mxGeometry x="60" y="520" width="30" height="30" as="geometry" />
        </mxCell>
        <mxCell id="-CtbvRUkjZRUwB8g9ffI-41" style="edgeStyle=orthogonalEdgeStyle;curved=1;rounded=0;orthogonalLoop=1;jettySize=auto;html=1;entryX=0;entryY=0.5;entryDx=0;entryDy=0;endArrow=none;endFill=0;" edge="1" parent="1" source="-CtbvRUkjZRUwB8g9ffI-14" target="-CtbvRUkjZRUwB8g9ffI-35">
          <mxGeometry relative="1" as="geometry" />
        </mxCell>
        <mxCell id="-CtbvRUkjZRUwB8g9ffI-14" value="" style="ellipse;whiteSpace=wrap;html=1;aspect=fixed;" vertex="1" parent="1">
          <mxGeometry x="40" y="460" width="30" height="30" as="geometry" />
        </mxCell>
        <mxCell id="-CtbvRUkjZRUwB8g9ffI-45" style="edgeStyle=orthogonalEdgeStyle;curved=1;rounded=0;orthogonalLoop=1;jettySize=auto;html=1;endArrow=none;endFill=0;entryX=0.5;entryY=1;entryDx=0;entryDy=0;" edge="1" parent="1" source="-CtbvRUkjZRUwB8g9ffI-15" target="-CtbvRUkjZRUwB8g9ffI-48">
          <mxGeometry relative="1" as="geometry">
            <mxPoint x="484" y="460" as="targetPoint" />
          </mxGeometry>
        </mxCell>
        <mxCell id="-CtbvRUkjZRUwB8g9ffI-15" value="" style="ellipse;whiteSpace=wrap;html=1;aspect=fixed;" vertex="1" parent="1">
          <mxGeometry x="384" y="530" width="30" height="30" as="geometry" />
        </mxCell>
        <mxCell id="-CtbvRUkjZRUwB8g9ffI-33" style="edgeStyle=orthogonalEdgeStyle;curved=1;rounded=0;orthogonalLoop=1;jettySize=auto;html=1;entryX=0.5;entryY=0;entryDx=0;entryDy=0;endArrow=none;endFill=0;" edge="1" parent="1" source="-CtbvRUkjZRUwB8g9ffI-16" target="-CtbvRUkjZRUwB8g9ffI-17">
          <mxGeometry relative="1" as="geometry" />
        </mxCell>
        <mxCell id="-CtbvRUkjZRUwB8g9ffI-16" value="" style="ellipse;whiteSpace=wrap;html=1;aspect=fixed;fillColor=#f8cecc;strokeColor=#b85450;" vertex="1" parent="1">
          <mxGeometry x="20" y="230" width="30" height="30" as="geometry" />
        </mxCell>
        <mxCell id="-CtbvRUkjZRUwB8g9ffI-32" style="edgeStyle=orthogonalEdgeStyle;curved=1;rounded=0;orthogonalLoop=1;jettySize=auto;html=1;entryX=0.5;entryY=1;entryDx=0;entryDy=0;endArrow=none;endFill=0;" edge="1" parent="1" source="-CtbvRUkjZRUwB8g9ffI-17" target="-CtbvRUkjZRUwB8g9ffI-18">
          <mxGeometry relative="1" as="geometry" />
        </mxCell>
        <mxCell id="-CtbvRUkjZRUwB8g9ffI-17" value="" style="ellipse;whiteSpace=wrap;html=1;aspect=fixed;" vertex="1" parent="1">
          <mxGeometry x="70" y="310" width="30" height="30" as="geometry" />
        </mxCell>
        <mxCell id="-CtbvRUkjZRUwB8g9ffI-31" style="edgeStyle=orthogonalEdgeStyle;curved=1;rounded=0;orthogonalLoop=1;jettySize=auto;html=1;entryX=0;entryY=0.5;entryDx=0;entryDy=0;endArrow=none;endFill=0;" edge="1" parent="1" source="-CtbvRUkjZRUwB8g9ffI-18" target="-CtbvRUkjZRUwB8g9ffI-19">
          <mxGeometry relative="1" as="geometry" />
        </mxCell>
        <mxCell id="-CtbvRUkjZRUwB8g9ffI-18" value="" style="ellipse;whiteSpace=wrap;html=1;aspect=fixed;" vertex="1" parent="1">
          <mxGeometry x="140" y="230" width="30" height="30" as="geometry" />
        </mxCell>
        <mxCell id="-CtbvRUkjZRUwB8g9ffI-43" style="edgeStyle=orthogonalEdgeStyle;curved=1;rounded=0;orthogonalLoop=1;jettySize=auto;html=1;entryX=0.5;entryY=0;entryDx=0;entryDy=0;endArrow=none;endFill=0;" edge="1" parent="1" source="-CtbvRUkjZRUwB8g9ffI-19" target="-CtbvRUkjZRUwB8g9ffI-12">
          <mxGeometry relative="1" as="geometry" />
        </mxCell>
        <mxCell id="-CtbvRUkjZRUwB8g9ffI-19" value="" style="ellipse;whiteSpace=wrap;html=1;aspect=fixed;fillColor=#dae8fc;strokeColor=#6c8ebf;" vertex="1" parent="1">
          <mxGeometry x="290" y="230" width="30" height="30" as="geometry" />
        </mxCell>
        <mxCell id="-CtbvRUkjZRUwB8g9ffI-20" value="" style="ellipse;whiteSpace=wrap;html=1;aspect=fixed;fillColor=#f8cecc;strokeColor=#b85450;" vertex="1" parent="1">
          <mxGeometry x="600" y="110" width="30" height="30" as="geometry" />
        </mxCell>
        <mxCell id="-CtbvRUkjZRUwB8g9ffI-29" style="edgeStyle=orthogonalEdgeStyle;curved=1;rounded=0;orthogonalLoop=1;jettySize=auto;html=1;entryX=0.5;entryY=0;entryDx=0;entryDy=0;endArrow=none;endFill=0;" edge="1" parent="1" source="-CtbvRUkjZRUwB8g9ffI-21" target="-CtbvRUkjZRUwB8g9ffI-20">
          <mxGeometry relative="1" as="geometry" />
        </mxCell>
        <mxCell id="-CtbvRUkjZRUwB8g9ffI-21" value="" style="ellipse;whiteSpace=wrap;html=1;aspect=fixed;" vertex="1" parent="1">
          <mxGeometry x="540" y="50" width="30" height="30" as="geometry" />
        </mxCell>
        <mxCell id="-CtbvRUkjZRUwB8g9ffI-28" style="edgeStyle=orthogonalEdgeStyle;curved=1;rounded=0;orthogonalLoop=1;jettySize=auto;html=1;endArrow=none;endFill=0;" edge="1" parent="1" source="-CtbvRUkjZRUwB8g9ffI-22" target="-CtbvRUkjZRUwB8g9ffI-21">
          <mxGeometry relative="1" as="geometry" />
        </mxCell>
        <mxCell id="-CtbvRUkjZRUwB8g9ffI-22" value="" style="ellipse;whiteSpace=wrap;html=1;aspect=fixed;" vertex="1" parent="1">
          <mxGeometry x="440" y="60" width="30" height="30" as="geometry" />
        </mxCell>
        <mxCell id="-CtbvRUkjZRUwB8g9ffI-23" value="" style="ellipse;whiteSpace=wrap;html=1;aspect=fixed;fillColor=#f8cecc;strokeColor=#b85450;" vertex="1" parent="1">
          <mxGeometry x="90" y="80" width="30" height="30" as="geometry" />
        </mxCell>
        <mxCell id="-CtbvRUkjZRUwB8g9ffI-35" value="" style="ellipse;whiteSpace=wrap;html=1;aspect=fixed;" vertex="1" parent="1">
          <mxGeometry x="120" y="420" width="30" height="30" as="geometry" />
        </mxCell>
        <mxCell id="-CtbvRUkjZRUwB8g9ffI-36" style="edgeStyle=orthogonalEdgeStyle;curved=1;rounded=0;orthogonalLoop=1;jettySize=auto;html=1;entryX=0.5;entryY=1;entryDx=0;entryDy=0;endArrow=none;endFill=0;" edge="1" source="-CtbvRUkjZRUwB8g9ffI-37" target="-CtbvRUkjZRUwB8g9ffI-38" parent="1">
          <mxGeometry relative="1" as="geometry" />
        </mxCell>
        <mxCell id="-CtbvRUkjZRUwB8g9ffI-39" style="edgeStyle=orthogonalEdgeStyle;curved=1;rounded=0;orthogonalLoop=1;jettySize=auto;html=1;endArrow=none;endFill=0;entryX=0;entryY=0.5;entryDx=0;entryDy=0;" edge="1" parent="1" source="-CtbvRUkjZRUwB8g9ffI-37" target="-CtbvRUkjZRUwB8g9ffI-46">
          <mxGeometry relative="1" as="geometry">
            <mxPoint x="340" y="430" as="targetPoint" />
          </mxGeometry>
        </mxCell>
        <mxCell id="-CtbvRUkjZRUwB8g9ffI-40" style="edgeStyle=orthogonalEdgeStyle;curved=1;rounded=0;orthogonalLoop=1;jettySize=auto;html=1;endArrow=none;endFill=0;" edge="1" parent="1" source="-CtbvRUkjZRUwB8g9ffI-37" target="-CtbvRUkjZRUwB8g9ffI-35">
          <mxGeometry relative="1" as="geometry" />
        </mxCell>
        <mxCell id="-CtbvRUkjZRUwB8g9ffI-37" value="" style="ellipse;whiteSpace=wrap;html=1;aspect=fixed;fillColor=#dae8fc;strokeColor=#6c8ebf;" vertex="1" parent="1">
          <mxGeometry x="210" y="460" width="30" height="30" as="geometry" />
        </mxCell>
        <mxCell id="-CtbvRUkjZRUwB8g9ffI-44" style="edgeStyle=orthogonalEdgeStyle;curved=1;rounded=0;orthogonalLoop=1;jettySize=auto;html=1;entryX=0;entryY=0.5;entryDx=0;entryDy=0;endArrow=none;endFill=0;" edge="1" parent="1" source="-CtbvRUkjZRUwB8g9ffI-38" target="-CtbvRUkjZRUwB8g9ffI-12">
          <mxGeometry relative="1" as="geometry" />
        </mxCell>
        <mxCell id="-CtbvRUkjZRUwB8g9ffI-38" value="" style="ellipse;whiteSpace=wrap;html=1;aspect=fixed;" vertex="1" parent="1">
          <mxGeometry x="240" y="320" width="30" height="30" as="geometry" />
        </mxCell>
        <mxCell id="-CtbvRUkjZRUwB8g9ffI-47" style="edgeStyle=orthogonalEdgeStyle;curved=1;rounded=0;orthogonalLoop=1;jettySize=auto;html=1;entryX=0;entryY=0.5;entryDx=0;entryDy=0;endArrow=none;endFill=0;" edge="1" parent="1" source="-CtbvRUkjZRUwB8g9ffI-46" target="-CtbvRUkjZRUwB8g9ffI-15">
          <mxGeometry relative="1" as="geometry" />
        </mxCell>
        <mxCell id="-CtbvRUkjZRUwB8g9ffI-46" value="" style="ellipse;whiteSpace=wrap;html=1;aspect=fixed;" vertex="1" parent="1">
          <mxGeometry x="304" y="550" width="30" height="30" as="geometry" />
        </mxCell>
        <mxCell id="-CtbvRUkjZRUwB8g9ffI-48" value="" style="ellipse;whiteSpace=wrap;html=1;aspect=fixed;fillColor=#f8cecc;strokeColor=#b85450;" vertex="1" parent="1">
          <mxGeometry x="354" y="440" width="30" height="30" as="geometry" />
        </mxCell>
        <mxCell id="-CtbvRUkjZRUwB8g9ffI-49" style="edgeStyle=orthogonalEdgeStyle;curved=1;rounded=0;orthogonalLoop=1;jettySize=auto;html=1;entryX=0;entryY=0.5;entryDx=0;entryDy=0;endArrow=none;endFill=0;exitX=0.5;exitY=1;exitDx=0;exitDy=0;" edge="1" source="-CtbvRUkjZRUwB8g9ffI-73" target="-CtbvRUkjZRUwB8g9ffI-55" parent="1">
          <mxGeometry relative="1" as="geometry" />
        </mxCell>
        <mxCell id="-CtbvRUkjZRUwB8g9ffI-50" value="" style="ellipse;whiteSpace=wrap;html=1;aspect=fixed;fillColor=#f8cecc;strokeColor=#b85450;" vertex="1" parent="1">
          <mxGeometry x="460" y="150" width="30" height="30" as="geometry" />
        </mxCell>
        <mxCell id="-CtbvRUkjZRUwB8g9ffI-68" style="edgeStyle=orthogonalEdgeStyle;curved=1;rounded=0;orthogonalLoop=1;jettySize=auto;html=1;entryX=0.5;entryY=1;entryDx=0;entryDy=0;endArrow=none;endFill=0;" edge="1" parent="1" source="-CtbvRUkjZRUwB8g9ffI-51" target="-CtbvRUkjZRUwB8g9ffI-67">
          <mxGeometry relative="1" as="geometry" />
        </mxCell>
        <mxCell id="-CtbvRUkjZRUwB8g9ffI-51" value="" style="ellipse;whiteSpace=wrap;html=1;aspect=fixed;" vertex="1" parent="1">
          <mxGeometry x="580" y="430" width="30" height="30" as="geometry" />
        </mxCell>
        <mxCell id="-CtbvRUkjZRUwB8g9ffI-58" style="edgeStyle=orthogonalEdgeStyle;curved=1;rounded=0;orthogonalLoop=1;jettySize=auto;html=1;entryX=0;entryY=0.5;entryDx=0;entryDy=0;endArrow=none;endFill=0;" edge="1" parent="1" source="-CtbvRUkjZRUwB8g9ffI-53" target="-CtbvRUkjZRUwB8g9ffI-51">
          <mxGeometry relative="1" as="geometry" />
        </mxCell>
        <mxCell id="-CtbvRUkjZRUwB8g9ffI-53" value="" style="ellipse;whiteSpace=wrap;html=1;aspect=fixed;fillColor=#dae8fc;strokeColor=#6c8ebf;" vertex="1" parent="1">
          <mxGeometry x="480" y="410" width="30" height="30" as="geometry" />
        </mxCell>
        <mxCell id="-CtbvRUkjZRUwB8g9ffI-76" style="edgeStyle=orthogonalEdgeStyle;curved=1;rounded=0;orthogonalLoop=1;jettySize=auto;html=1;entryX=0.5;entryY=0;entryDx=0;entryDy=0;endArrow=none;endFill=0;" edge="1" parent="1" source="-CtbvRUkjZRUwB8g9ffI-55" target="-CtbvRUkjZRUwB8g9ffI-75">
          <mxGeometry relative="1" as="geometry" />
        </mxCell>
        <mxCell id="-CtbvRUkjZRUwB8g9ffI-55" value="" style="ellipse;whiteSpace=wrap;html=1;aspect=fixed;fillColor=#dae8fc;strokeColor=#6c8ebf;" vertex="1" parent="1">
          <mxGeometry x="550" y="280" width="30" height="30" as="geometry" />
        </mxCell>
        <mxCell id="-CtbvRUkjZRUwB8g9ffI-59" style="edgeStyle=orthogonalEdgeStyle;curved=1;rounded=0;orthogonalLoop=1;jettySize=auto;html=1;endArrow=none;endFill=0;entryX=0.5;entryY=1;entryDx=0;entryDy=0;" edge="1" source="-CtbvRUkjZRUwB8g9ffI-60" target="-CtbvRUkjZRUwB8g9ffI-63" parent="1">
          <mxGeometry relative="1" as="geometry">
            <mxPoint x="660" y="495" as="targetPoint" />
          </mxGeometry>
        </mxCell>
        <mxCell id="-CtbvRUkjZRUwB8g9ffI-60" value="" style="ellipse;whiteSpace=wrap;html=1;aspect=fixed;" vertex="1" parent="1">
          <mxGeometry x="630" y="520" width="30" height="30" as="geometry" />
        </mxCell>
        <mxCell id="-CtbvRUkjZRUwB8g9ffI-65" style="edgeStyle=orthogonalEdgeStyle;curved=1;rounded=0;orthogonalLoop=1;jettySize=auto;html=1;entryX=1;entryY=0.5;entryDx=0;entryDy=0;endArrow=none;endFill=0;" edge="1" parent="1" source="-CtbvRUkjZRUwB8g9ffI-62" target="-CtbvRUkjZRUwB8g9ffI-60">
          <mxGeometry relative="1" as="geometry" />
        </mxCell>
        <mxCell id="-CtbvRUkjZRUwB8g9ffI-62" value="" style="ellipse;whiteSpace=wrap;html=1;aspect=fixed;fillColor=#f8cecc;strokeColor=#b85450;" vertex="1" parent="1">
          <mxGeometry x="720" y="585" width="30" height="30" as="geometry" />
        </mxCell>
        <mxCell id="-CtbvRUkjZRUwB8g9ffI-66" style="edgeStyle=orthogonalEdgeStyle;curved=1;rounded=0;orthogonalLoop=1;jettySize=auto;html=1;entryX=0;entryY=1;entryDx=0;entryDy=0;endArrow=none;endFill=0;exitX=0;exitY=0.5;exitDx=0;exitDy=0;" edge="1" parent="1" source="-CtbvRUkjZRUwB8g9ffI-86" target="-CtbvRUkjZRUwB8g9ffI-53">
          <mxGeometry relative="1" as="geometry" />
        </mxCell>
        <mxCell id="-CtbvRUkjZRUwB8g9ffI-63" value="" style="ellipse;whiteSpace=wrap;html=1;aspect=fixed;fillColor=#dae8fc;strokeColor=#6c8ebf;" vertex="1" parent="1">
          <mxGeometry x="530" y="555" width="30" height="30" as="geometry" />
        </mxCell>
        <mxCell id="-CtbvRUkjZRUwB8g9ffI-67" value="" style="ellipse;whiteSpace=wrap;html=1;aspect=fixed;fillColor=#f8cecc;strokeColor=#b85450;" vertex="1" parent="1">
          <mxGeometry x="710" y="370" width="30" height="30" as="geometry" />
        </mxCell>
        <mxCell id="-CtbvRUkjZRUwB8g9ffI-69" style="edgeStyle=orthogonalEdgeStyle;curved=1;rounded=0;orthogonalLoop=1;jettySize=auto;html=1;entryX=0.5;entryY=0;entryDx=0;entryDy=0;endArrow=none;endFill=0;" edge="1" source="-CtbvRUkjZRUwB8g9ffI-70" target="-CtbvRUkjZRUwB8g9ffI-71" parent="1">
          <mxGeometry relative="1" as="geometry" />
        </mxCell>
        <mxCell id="-CtbvRUkjZRUwB8g9ffI-72" style="edgeStyle=orthogonalEdgeStyle;curved=1;rounded=0;orthogonalLoop=1;jettySize=auto;html=1;entryX=1;entryY=0;entryDx=0;entryDy=0;endArrow=none;endFill=0;" edge="1" parent="1" source="-CtbvRUkjZRUwB8g9ffI-70" target="-CtbvRUkjZRUwB8g9ffI-55">
          <mxGeometry relative="1" as="geometry" />
        </mxCell>
        <mxCell id="-CtbvRUkjZRUwB8g9ffI-70" value="" style="ellipse;whiteSpace=wrap;html=1;aspect=fixed;" vertex="1" parent="1">
          <mxGeometry x="620" y="290" width="30" height="30" as="geometry" />
        </mxCell>
        <mxCell id="-CtbvRUkjZRUwB8g9ffI-71" value="" style="ellipse;whiteSpace=wrap;html=1;aspect=fixed;fillColor=#f8cecc;strokeColor=#b85450;" vertex="1" parent="1">
          <mxGeometry x="720" y="270" width="30" height="30" as="geometry" />
        </mxCell>
        <mxCell id="-CtbvRUkjZRUwB8g9ffI-74" style="edgeStyle=orthogonalEdgeStyle;curved=1;rounded=0;orthogonalLoop=1;jettySize=auto;html=1;entryX=1;entryY=0.5;entryDx=0;entryDy=0;endArrow=none;endFill=0;" edge="1" parent="1" source="-CtbvRUkjZRUwB8g9ffI-73" target="-CtbvRUkjZRUwB8g9ffI-50">
          <mxGeometry relative="1" as="geometry" />
        </mxCell>
        <mxCell id="-CtbvRUkjZRUwB8g9ffI-73" value="" style="ellipse;whiteSpace=wrap;html=1;aspect=fixed;" vertex="1" parent="1">
          <mxGeometry x="530" y="190" width="30" height="30" as="geometry" />
        </mxCell>
        <mxCell id="-CtbvRUkjZRUwB8g9ffI-77" style="edgeStyle=orthogonalEdgeStyle;curved=1;rounded=0;orthogonalLoop=1;jettySize=auto;html=1;entryX=0.5;entryY=0;entryDx=0;entryDy=0;endArrow=none;endFill=0;" edge="1" parent="1" source="-CtbvRUkjZRUwB8g9ffI-75" target="-CtbvRUkjZRUwB8g9ffI-53">
          <mxGeometry relative="1" as="geometry" />
        </mxCell>
        <mxCell id="-CtbvRUkjZRUwB8g9ffI-75" value="" style="ellipse;whiteSpace=wrap;html=1;aspect=fixed;" vertex="1" parent="1">
          <mxGeometry x="500" y="330" width="30" height="30" as="geometry" />
        </mxCell>
        <mxCell id="-CtbvRUkjZRUwB8g9ffI-81" style="edgeStyle=orthogonalEdgeStyle;curved=1;rounded=0;orthogonalLoop=1;jettySize=auto;html=1;entryX=0.5;entryY=1;entryDx=0;entryDy=0;endArrow=none;endFill=0;" edge="1" parent="1" source="-CtbvRUkjZRUwB8g9ffI-78" target="-CtbvRUkjZRUwB8g9ffI-46">
          <mxGeometry relative="1" as="geometry" />
        </mxCell>
        <mxCell id="-CtbvRUkjZRUwB8g9ffI-78" value="" style="ellipse;whiteSpace=wrap;html=1;aspect=fixed;" vertex="1" parent="1">
          <mxGeometry x="210" y="610" width="30" height="30" as="geometry" />
        </mxCell>
        <mxCell id="-CtbvRUkjZRUwB8g9ffI-79" style="edgeStyle=orthogonalEdgeStyle;curved=1;rounded=0;orthogonalLoop=1;jettySize=auto;html=1;entryX=0;entryY=0.5;entryDx=0;entryDy=0;endArrow=none;endFill=0;" edge="1" source="-CtbvRUkjZRUwB8g9ffI-80" target="-CtbvRUkjZRUwB8g9ffI-78" parent="1">
          <mxGeometry relative="1" as="geometry" />
        </mxCell>
        <mxCell id="-CtbvRUkjZRUwB8g9ffI-80" value="" style="ellipse;whiteSpace=wrap;html=1;aspect=fixed;fillColor=#f8cecc;strokeColor=#b85450;" vertex="1" parent="1">
          <mxGeometry x="130" y="630" width="30" height="30" as="geometry" />
        </mxCell>
        <mxCell id="-CtbvRUkjZRUwB8g9ffI-85" style="edgeStyle=orthogonalEdgeStyle;curved=1;rounded=0;orthogonalLoop=1;jettySize=auto;html=1;entryX=0.5;entryY=1;entryDx=0;entryDy=0;endArrow=none;endFill=0;" edge="1" parent="1" source="-CtbvRUkjZRUwB8g9ffI-82" target="-CtbvRUkjZRUwB8g9ffI-63">
          <mxGeometry relative="1" as="geometry" />
        </mxCell>
        <mxCell id="-CtbvRUkjZRUwB8g9ffI-82" value="" style="ellipse;whiteSpace=wrap;html=1;aspect=fixed;" vertex="1" parent="1">
          <mxGeometry x="450" y="610" width="30" height="30" as="geometry" />
        </mxCell>
        <mxCell id="-CtbvRUkjZRUwB8g9ffI-83" style="edgeStyle=orthogonalEdgeStyle;curved=1;rounded=0;orthogonalLoop=1;jettySize=auto;html=1;entryX=0;entryY=0.5;entryDx=0;entryDy=0;endArrow=none;endFill=0;" edge="1" source="-CtbvRUkjZRUwB8g9ffI-84" target="-CtbvRUkjZRUwB8g9ffI-82" parent="1">
          <mxGeometry relative="1" as="geometry" />
        </mxCell>
        <mxCell id="-CtbvRUkjZRUwB8g9ffI-84" value="" style="ellipse;whiteSpace=wrap;html=1;aspect=fixed;fillColor=#f8cecc;strokeColor=#b85450;" vertex="1" parent="1">
          <mxGeometry x="370" y="630" width="30" height="30" as="geometry" />
        </mxCell>
        <mxCell id="-CtbvRUkjZRUwB8g9ffI-87" style="edgeStyle=orthogonalEdgeStyle;curved=1;rounded=0;orthogonalLoop=1;jettySize=auto;html=1;entryX=0;entryY=0.5;entryDx=0;entryDy=0;endArrow=none;endFill=0;" edge="1" parent="1" source="-CtbvRUkjZRUwB8g9ffI-86" target="-CtbvRUkjZRUwB8g9ffI-63">
          <mxGeometry relative="1" as="geometry" />
        </mxCell>
        <mxCell id="-CtbvRUkjZRUwB8g9ffI-86" value="" style="ellipse;whiteSpace=wrap;html=1;aspect=fixed;" vertex="1" parent="1">
          <mxGeometry x="500" y="480" width="30" height="30" as="geometry" />
        </mxCell>
        <mxCell id="-CtbvRUkjZRUwB8g9ffI-88" value="map全体図（イメージ）" style="text;html=1;resizable=0;autosize=1;align=center;verticalAlign=middle;points=[];fillColor=none;strokeColor=none;rounded=0;fontSize=23;" vertex="1" parent="1">
          <mxGeometry x="60" y="20" width="270" height="30" as="geometry" />
        </mxCell>
      </root>
    </mxGraphModel>
  </diagram>
</mxfile>
